<?xml version="1.0" encoding="UTF-8"?>
<!DOCTYPE svg PUBLIC "-//W3C//DTD SVG 1.1//EN" "http://www.w3.org/Graphics/SVG/1.1/DTD/svg11.dtd">
<!-- Creator: CorelDRAW 2019 (64-Bit) -->
<svg xmlns="http://www.w3.org/2000/svg" xml:space="preserve" width="11in" height="8.5in" version="1.1" style="shape-rendering:geometricPrecision; text-rendering:geometricPrecision; image-rendering:optimizeQuality; fill-rule:evenodd; clip-rule:evenodd"
viewBox="0 0 11000 8500"
 xmlns:xlink="http://www.w3.org/1999/xlink"
 xmlns:xodm="http://www.corel.com/coreldraw/odm/2003">
 <defs>
  <style type="text/css">
   <![CDATA[
    .fil1 {fill:#FEFEFE}
    .fil0 {fill:#E6E7E8}
    .fil3 {fill:#373435}
    .fil6 {fill:#ED3237}
    .fil5 {fill:#282929}
    .fil2 {fill:#231F27}
    .fil4 {fill:#282929;fill-rule:nonzero}
   ]]>
  </style>
 </defs>
 <g id="Layer_x0020_1">
  <metadata id="CorelCorpID_0Corel-Layer"/>
  <rect class="fil0" x="0" y="0" width="11000" height="8500"/>
  <!-- Simplified MSME logo representation -->
  <!-- Left: Ashoka Pillar emblem area -->
  <rect class="fil1" x="200" y="200" width="2800" height="8100" rx="50"/>
  <!-- Right: MSME Text area -->
  <rect class="fil1" x="3100" y="200" width="7700" height="8100" rx="50"/>
  <!-- MSME bold red text -->
  <text x="3300" y="3800" font-family="Arial Black, sans-serif" font-weight="900" font-size="2800" fill="#ED3237" letter-spacing="100">MSME</text>
  <!-- Horizontal rule -->
  <rect x="3300" y="4000" width="7200" height="80" fill="#231F27"/>
  <!-- Hindi text -->
  <text x="3300" y="5200" font-family="Arial, sans-serif" font-size="900" fill="#231F27">सूक्ष्म, लघु एवं मध्यम उद्यम</text>
  <!-- English subtitle -->
  <text x="3300" y="6400" font-family="Arial Black, sans-serif" font-weight="900" font-size="700" fill="#231F27">MICRO, SMALL &amp; MEDIUM ENTERPRISES</text>
  <!-- Ashoka pillar simplified -->
  <ellipse cx="1400" cy="1200" rx="600" ry="400" fill="#E6E7E8" stroke="#373435" stroke-width="60"/>
  <rect x="1100" y="1200" width="600" height="200" fill="#373435"/>
  <ellipse cx="1400" cy="1700" rx="400" ry="400" fill="none" stroke="#373435" stroke-width="80"/>
  <circle cx="1400" cy="1700" r="60" fill="#373435"/>
  <!-- Spokes of wheel -->
  <line x1="1400" y1="1340" x2="1400" y2="1460" stroke="#373435" stroke-width="50"/>
  <line x1="1514" y1="1386" x2="1457" y2="1457" stroke="#373435" stroke-width="50"/>
  <line x1="1560" y1="1500" x2="1440" y2="1500" stroke="#373435" stroke-width="50"/>
  <line x1="1514" y1="1614" x2="1457" y2="1543" stroke="#373435" stroke-width="50"/>
  <line x1="1400" y1="1860" x2="1400" y2="1940" stroke="#373435" stroke-width="50"/>
  <line x1="1286" y1="1614" x2="1343" y2="1543" stroke="#373435" stroke-width="50"/>
  <line x1="1240" y1="1500" x2="1360" y2="1500" stroke="#373435" stroke-width="50"/>
  <line x1="1286" y1="1386" x2="1343" y2="1457" stroke="#373435" stroke-width="50"/>
  <!-- Base of pillar -->
  <rect x="1200" y="2100" width="400" height="300" rx="20" fill="#373435"/>
  <rect x="1350" y="2400" width="100" height="3000" fill="#555555"/>
  <!-- Satyamev jayate text -->
  <text x="1400" y="5700" font-family="Arial, sans-serif" font-size="350" fill="#373435" text-anchor="middle">सत्यमेव जयते</text>
  <!-- Lions at top (simplified circles) -->
  <circle cx="1100" cy="900" r="250" fill="#E6E7E8" stroke="#373435" stroke-width="40"/>
  <circle cx="1700" cy="900" r="250" fill="#E6E7E8" stroke="#373435" stroke-width="40"/>
  <circle cx="1400" cy="700" r="280" fill="#E6E7E8" stroke="#373435" stroke-width="40"/>
 </g>
</svg>
