<svg width="64" height="64" viewBox="0 0 64 64" xmlns="http://www.w3.org/2000/svg" aria-label="SkillValix favicon">
  <defs>
    <radialGradient id="favCircleGrad" cx="32%" cy="28%" r="75%">
      <stop offset="0%" stop-color="#93C5FD" />
      <stop offset="40%" stop-color="#2563EB" />
      <stop offset="100%" stop-color="#1E3A8A" />
    </radialGradient>
    <radialGradient id="favRimGrad" cx="35%" cy="30%" r="65%">
      <stop offset="60%" stop-color="white" stop-opacity="0" />
      <stop offset="100%" stop-color="white" stop-opacity="0.12" />
    </radialGradient>
    <linearGradient id="favBadgeGrad" x1="0%" y1="0%" x2="100%" y2="100%">
      <stop offset="0%" stop-color="#22C55E" />
      <stop offset="100%" stop-color="#15803D" />
    </linearGradient>
    <clipPath id="favClip">
      <circle cx="32" cy="34" r="29" />
    </clipPath>
  </defs>

  <circle cx="32" cy="34" r="29" fill="url(#favCircleGrad)" />
  <circle cx="32" cy="34" r="29" fill="url(#favRimGrad)" />
  <circle cx="32" cy="34" r="29" fill="none" stroke="white" stroke-width="1.4" opacity="0.24" />

  <g clip-path="url(#favClip)">
    <rect x="16" y="39" width="6" height="11" rx="1.4" fill="white" opacity="0.55" />
    <rect x="24" y="32" width="6" height="18" rx="1.4" fill="white" opacity="0.7" />
    <rect x="32" y="25" width="6" height="25" rx="1.4" fill="white" opacity="0.86" />
    <rect x="40" y="17" width="6" height="33" rx="1.4" fill="white" opacity="1" />
    <line x1="13" y1="52" x2="49" y2="52" stroke="white" stroke-width="1.3" opacity="0.34" stroke-linecap="round" />
  </g>

  <circle cx="51" cy="14" r="10" fill="url(#favBadgeGrad)" />
  <circle cx="51" cy="14" r="10" fill="none" stroke="white" stroke-width="0.9" opacity="0.3" />
  <path d="M 46.5 14 L 50 17.5 L 56 10" fill="none" stroke="white" stroke-width="2.6" stroke-linecap="round" stroke-linejoin="round" />
</svg>