<svg width="520" height="180" viewBox="0 0 520 180" xmlns="http://www.w3.org/2000/svg" aria-label="SkillValix">
  <defs>
    <radialGradient id="circleGrad" cx="32%" cy="28%" r="75%">
      <stop offset="0%" stop-color="#93C5FD" />
      <stop offset="40%" stop-color="#2563EB" />
      <stop offset="100%" stop-color="#1E3A8A" />
    </radialGradient>

    <radialGradient id="rimGrad" cx="35%" cy="30%" r="65%">
      <stop offset="60%" stop-color="white" stop-opacity="0" />
      <stop offset="100%" stop-color="white" stop-opacity="0.12" />
    </radialGradient>

    <linearGradient id="badgeGrad" x1="0%" y1="0%" x2="100%" y2="100%">
      <stop offset="0%" stop-color="#22C55E" />
      <stop offset="100%" stop-color="#15803D" />
    </linearGradient>

    <linearGradient id="textGrad" x1="0%" y1="0%" x2="0%" y2="100%">
      <stop offset="0%" stop-color="#111827" />
      <stop offset="100%" stop-color="#1F2937" />
    </linearGradient>

    <linearGradient id="blueGrad" x1="0%" y1="0%" x2="0%" y2="100%">
      <stop offset="0%" stop-color="#3B82F6" />
      <stop offset="100%" stop-color="#1D4ED8" />
    </linearGradient>

    <filter id="circleShadow" x="-20%" y="-20%" width="140%" height="140%">
      <feDropShadow dx="0" dy="4" stdDeviation="5" flood-color="#1E3A8A" flood-opacity="0.35" />
    </filter>
    <filter id="badgeShadow" x="-30%" y="-30%" width="160%" height="160%">
      <feDropShadow dx="0" dy="2" stdDeviation="3" flood-color="#166534" flood-opacity="0.4" />
    </filter>
    <filter id="textShadow" x="-5%" y="-5%" width="110%" height="120%">
      <feDropShadow dx="0" dy="1" stdDeviation="1" flood-color="#1D4ED8" flood-opacity="0.15" />
    </filter>

    <clipPath id="circleClip">
      <circle cx="88" cy="90" r="46" />
    </clipPath>
  </defs>

  <circle cx="88" cy="90" r="46" fill="#1E3A8A" filter="url(#circleShadow)" opacity="0.5" />
  <circle cx="88" cy="90" r="46" fill="url(#circleGrad)" />
  <circle cx="88" cy="90" r="46" fill="url(#rimGrad)" />
  <circle cx="88" cy="90" r="46" fill="none" stroke="white" stroke-width="1" opacity="0.18" />

  <g clip-path="url(#circleClip)">
    <rect x="63" y="108" width="11" height="17" rx="2" fill="black" opacity="0.2" transform="translate(1,2)" />
    <rect x="78" y="98" width="11" height="27" rx="2" fill="black" opacity="0.2" transform="translate(1,2)" />
    <rect x="93" y="87" width="11" height="38" rx="2" fill="black" opacity="0.2" transform="translate(1,2)" />
    <rect x="108" y="74" width="11" height="51" rx="2" fill="black" opacity="0.2" transform="translate(1,2)" />

    <rect x="62" y="107" width="11" height="17" rx="2" fill="white" opacity="0.5" />
    <rect x="77" y="97" width="11" height="27" rx="2" fill="white" opacity="0.68" />
    <rect x="92" y="86" width="11" height="38" rx="2" fill="white" opacity="0.85" />
    <rect x="107" y="73" width="11" height="51" rx="2" fill="white" opacity="1" />

    <rect x="62" y="107" width="11" height="3" rx="1.5" fill="white" opacity="0.4" />
    <rect x="77" y="97" width="11" height="3" rx="1.5" fill="white" opacity="0.4" />
    <rect x="92" y="86" width="11" height="3" rx="1.5" fill="white" opacity="0.4" />
    <rect x="107" y="73" width="11" height="3" rx="1.5" fill="white" opacity="0.4" />

    <line x1="58" y1="126" x2="130" y2="126" stroke="white" stroke-width="1" opacity="0.3" stroke-linecap="round" />
  </g>

  <circle cx="126" cy="50" r="17" fill="#166534" filter="url(#badgeShadow)" opacity="0.5" />
  <circle cx="126" cy="50" r="17" fill="url(#badgeGrad)" />
  <circle cx="126" cy="50" r="17" fill="none" stroke="white" stroke-width="1" opacity="0.25" />

  <path d="M 118.5 49.5 L 124 56 L 135.5 40.5" fill="none" stroke="white" stroke-width="3" stroke-linecap="round" stroke-linejoin="round" />
  <path d="M 118.5 49.5 L 124 56 L 135.5 40.5" fill="none" stroke="white" stroke-width="1" stroke-linecap="round" stroke-linejoin="round" opacity="0.5" />

  <text x="152" y="115" font-family="DM Sans, Segoe UI, system-ui, sans-serif" font-size="70" font-weight="900" letter-spacing="-2.5" filter="url(#textShadow)">
    <tspan fill="url(#textGrad)">Skill</tspan>
    <tspan fill="url(#blueGrad)">valix</tspan>
  </text>
</svg>